<?xml version="1.0" encoding="utf-8"?><svg viewBox="0 0 183 51" xmlns="http://www.w3.org/2000/svg" xmlns:xlink="http://www.w3.org/1999/xlink"><style>:root>svg{display:none}:root>svg:target{display:block}</style><svg fill="none" viewBox="0 0 18 30" id="facebook-icon" xmlns="http://www.w3.org/2000/svg"><path d="M10.62 30h-4.8a1.456 1.456 0 01-1.453-1.455V17.709h-2.8a1.456 1.456 0 01-1.453-1.456V11.61c0-.802.652-1.455 1.453-1.455h2.8V7.83c0-2.306.723-4.267 2.091-5.673C7.832.746 9.752 0 12.011 0l3.66.006c.8.001 1.451.654 1.451 1.455v4.311c0 .803-.651 1.456-1.453 1.456h-2.464c-.752 0-.943.151-.984.198-.067.076-.148.293-.148.892v1.837h3.411c.257 0 .505.063.72.182.46.258.747.746.747 1.273l-.002 4.644c0 .802-.652 1.454-1.453 1.454h-3.423v10.837c0 .802-.652 1.455-1.453 1.455zm-4.496-1.759h4.192v-11.32c0-.536.436-.971.971-.971h3.905l.002-4.036h-3.907a.972.972 0 01-.97-.972V8.318c0-.688.07-1.469.587-2.056.626-.71 1.613-.792 2.3-.792l2.162-.001V1.764L12.01 1.76c-3.63 0-5.886 2.326-5.886 6.07v3.113a.972.972 0 01-.97.972H1.87v4.036h3.283c.535 0 .97.435.97.971v11.32zm9.544-26.476z" fill="#fff"/></svg><svg fill="none" viewBox="0 0 30 31" id="instagram-icon" xmlns="http://www.w3.org/2000/svg"><path d="M21.539.512H7.994C3.586.512 0 4.096 0 8.502V22.04c0 4.405 3.586 7.99 7.994 7.99H21.54c4.408 0 7.994-3.585 7.994-7.99V8.502c0-4.406-3.586-7.99-7.994-7.99zm6.263 21.528c0 3.451-2.81 6.26-6.263 6.26H7.994a6.268 6.268 0 01-6.263-6.26V8.502c0-3.452 2.81-6.26 6.263-6.26H21.54a6.268 6.268 0 016.263 6.26V22.04z" fill="#fff"/><path d="M14.767 7.2c-4.453 0-8.076 3.62-8.076 8.07 0 4.451 3.623 8.072 8.076 8.072 4.452 0 8.075-3.62 8.075-8.071 0-4.45-3.623-8.071-8.075-8.071zm0 14.411c-3.498 0-6.344-2.844-6.344-6.34s2.846-6.34 6.344-6.34a6.35 6.35 0 016.343 6.34 6.35 6.35 0 01-6.343 6.34zM23.035 4.333a2.388 2.388 0 00-2.386 2.385 2.388 2.388 0 002.386 2.385 2.388 2.388 0 002.386-2.385 2.388 2.388 0 00-2.386-2.385zm0 3.04a.655.655 0 11.001-1.311.655.655 0 01-.001 1.31z" fill="#fff"/></svg><svg fill="none" viewBox="0 0 183 51" id="logo" xmlns="http://www.w3.org/2000/svg"><path d="M14.193 24.154c0-.915-.324-1.615-.97-2.1-.647-.495-1.81-1.012-3.492-1.55-1.681-.55-3.013-1.088-3.993-1.616-2.673-1.443-4.01-3.387-4.01-5.831 0-1.27.356-2.402 1.068-3.392.722-1.002 1.75-1.782 3.087-2.342 1.347-.56 2.856-.84 4.527-.84 1.681 0 3.18.307 4.494.92 1.315.603 2.333 1.46 3.055 2.569.733 1.109 1.1 2.369 1.1 3.78h-4.85c0-1.077-.34-1.912-1.019-2.504-.679-.603-1.632-.905-2.861-.905-1.186 0-2.107.253-2.764.76-.658.495-.987 1.152-.987 1.97 0 .765.383 1.405 1.148 1.922.776.517 1.913 1.002 3.411 1.454 2.76.83 4.77 1.857 6.03 3.085 1.261 1.228 1.892 2.757 1.892 4.588 0 2.035-.771 3.634-2.312 4.797-1.541 1.152-3.616 1.728-6.224 1.728-1.81 0-3.46-.328-4.947-.985-1.487-.668-2.624-1.578-3.41-2.73C1.388 25.78 1 24.445 1 22.926h4.866c0 2.596 1.552 3.893 4.656 3.893 1.153 0 2.053-.231 2.7-.694.646-.474.97-1.131.97-1.971zm45.992 2.277h10.298v3.893H55.335V6.806h4.85V26.43zm26.706-.953h-8.503l-1.616 4.846h-5.157l8.762-23.518h4.494l8.81 23.518h-5.157l-1.633-4.846zm-7.193-3.925h5.884l-2.958-8.803-2.926 8.803zm24.895.162h-3.863v8.61h-4.85V6.804h8.746c2.78 0 4.925.62 6.434 1.858 1.509 1.239 2.263 2.989 2.263 5.25 0 1.604-.35 2.945-1.051 4.022-.689 1.066-1.74 1.917-3.152 2.552l5.092 9.611v.226h-5.205l-4.414-8.61zm-3.863-3.925h3.912c1.218 0 2.161-.307 2.829-.921.668-.625 1.002-1.48 1.002-2.568 0-1.11-.318-1.982-.954-2.617-.625-.635-1.589-.953-2.893-.953h-3.896v7.059zm38.701 2.342h-9.311v6.3h10.928v3.892H125.27V6.806h15.746v3.925H130.12v5.605h9.311v3.796zm12.885-5.218l4.413-8.108h5.577l-6.853 11.662 7.031 11.856h-5.642l-4.526-8.238-4.527 8.238h-5.642l7.033-11.856-6.855-11.662h5.577l4.414 8.108zm26.787 5.218h-9.312v6.3h10.929v3.892h-15.779V6.806h15.745v3.925h-10.895v5.605h9.312v3.796zM37.245 10.186c-5.507 0-9.987 4.476-9.987 9.979 0 5.502 4.48 9.979 9.987 9.979s9.988-4.477 9.988-9.98c0-5.502-4.48-9.978-9.988-9.978zm0 18.2c-4.537 0-8.228-3.688-8.228-8.221 0-4.534 3.69-8.222 8.228-8.222s8.229 3.688 8.229 8.222c0 4.533-3.691 8.222-8.229 8.222zM37.246 3.626a.88.88 0 00-.88.878v3.46a.88.88 0 001.76 0v-3.46a.88.88 0 00-.88-.878zM48.95 8.47a.88.88 0 00-1.243 0l-2.449 2.446a.878.878 0 101.244 1.242l2.448-2.446a.878.878 0 000-1.242zM29.233 28.171a.88.88 0 00-1.244 0l-2.448 2.446a.878.878 0 101.243 1.243l2.448-2.446a.878.878 0 000-1.243zM52.92 19.286h-3.463a.879.879 0 100 1.757h3.462a.879.879 0 100-1.757zM25.034 19.286h-3.462a.879.879 0 100 1.757h3.462a.879.879 0 100-1.757zM29.233 10.916L26.784 8.47a.88.88 0 00-1.243 1.242l2.448 2.447a.877.877 0 001.244 0 .878.878 0 000-1.243zM48.95 30.617l-2.448-2.446a.88.88 0 00-1.244 1.243l2.449 2.446a.877.877 0 001.243 0 .878.878 0 000-1.242zM60.289 48.75l.244-1.78.111-.81 4.865.668a.879.879 0 10.24-1.741l-4.866-.667.602-4.387 4.865.667a.88.88 0 10.24-1.741l-4.866-.667.111-.81.245-1.779a.878.878 0 10-1.743-.238l-.124.908-4.303-.59a5.68 5.68 0 00-6.203 3.984l-7.745-1.062a4.643 4.643 0 01-3.967-5.224l.28-2.048a.879.879 0 00-1.741-.238l-.281 2.047c-.48 3.494 1.974 6.725 5.47 7.204l7.745 1.062a5.677 5.677 0 004.9 5.505l4.303.59-.125.908a.879.879 0 001.743.239zm-5.681-3.478a3.915 3.915 0 01-3.346-4.405 3.917 3.917 0 014.409-3.342l4.303.59-1.064 7.747-4.302-.59zM104.343 3.135a.88.88 0 100-1.758.88.88 0 000 1.758zM100.204 3.135a.88.88 0 10.001-1.758.88.88 0 00-.001 1.758z" fill="#fff"/></svg><svg fill="none" viewBox="0 0 31 22" id="telegram-icon" xmlns="http://www.w3.org/2000/svg"><path d="M30.312.382a1.117 1.117 0 00-1.216-.318L1.563 9.609c-.55.192-.936.657-1.008 1.214a1.445 1.445 0 00.662 1.402l3.935 2.577c.382.25.872.277 1.28.07l8.537-4.32-6.653 4.767c-.313.224-.5.58-.5.955v4.415c0 .455.261.872.68 1.089.42.216.927.195 1.326-.057l2.99-1.903 2.94 1.923a1.596 1.596 0 001.187.228 1.566 1.566 0 001.003-.671L30.399 1.592c.242-.38.207-.865-.087-1.21zM16.56 20.227l-3.044-1.992a1.276 1.276 0 00-1.387-.008L9.576 19.85v-3.328l11.75-8.416c.524-.376.656-1.06.306-1.591a1.263 1.263 0 00-1.63-.418L5.888 13.24 2.56 11.06l25.354-8.79L16.56 20.227z" fill="#fff"/></svg><svg fill="none" viewBox="0 0 31 30" id="whatsapp-icon" xmlns="http://www.w3.org/2000/svg"><path d="M25.908 4.25A14.23 14.23 0 0015.781.058h-.001c-1.892 0-3.736.366-5.48 1.088A14.251 14.251 0 005.653 4.25a14.217 14.217 0 00-4.195 10.122c0 2.28.55 4.546 1.594 6.565L.646 27.811c-.17.485-.05 1.012.314 1.375a1.316 1.316 0 001.375.314l6.878-2.406a14.37 14.37 0 006.568 1.593c3.826 0 7.422-1.49 10.127-4.193a14.217 14.217 0 004.195-10.122c0-3.823-1.49-7.418-4.195-10.122zm-1.225 19.02a12.51 12.51 0 01-8.902 3.685c-2.057 0-4.1-.508-5.91-1.47a1.334 1.334 0 00-1.064-.083L2.56 27.587l2.187-6.244a1.333 1.333 0 00-.083-1.064 12.61 12.61 0 01-1.472-5.907c0-3.36 1.31-6.521 3.688-8.898A12.512 12.512 0 0115.78 1.79h.001a12.51 12.51 0 018.902 3.685 12.497 12.497 0 013.688 8.898c0 3.361-1.31 6.521-3.688 8.898z" fill="#fff"/><path d="M21.104 15.65a1.692 1.692 0 00-2.39 0l-.72.72a10.486 10.486 0 01-4.213-4.209l.72-.72a1.69 1.69 0 000-2.389l-1.941-1.94a1.692 1.692 0 00-2.39 0L8.617 8.663c-.89.89-.934 2.418-.125 4.305.702 1.639 1.988 3.44 3.62 5.07 1.632 1.632 3.434 2.917 5.073 3.619.897.384 1.713.576 2.418.576.779 0 1.422-.234 1.89-.701l1.553-1.553c.319-.319.495-.743.495-1.194 0-.451-.176-.875-.495-1.194l-1.942-1.941zm-.837 4.659c-.253.253-1.034.342-2.4-.242-1.441-.618-3.05-1.773-4.53-3.252-1.48-1.479-2.635-3.087-3.253-4.528-.585-1.364-.496-2.145-.242-2.399l1.523-1.523 1.882 1.881-.902.902a1.32 1.32 0 00-.245 1.539 12.217 12.217 0 005.368 5.364 1.322 1.322 0 001.539-.245l.902-.901 1.882 1.881-1.524 1.523z" fill="#fff"/></svg></svg>